<svg width="22" height="22" viewBox="0 0 22 22" fill="none" xmlns="http://www.w3.org/2000/svg">
<path d="M4.49167 17.5083C0.916675 13.9333 0.916675 8.06667 4.49167 4.49167M7.15001 14.85C5.04167 12.7417 5.04167 9.25834 7.15001 7.05834" stroke="#f7f5f5 " stroke-width="2" stroke-linecap="round" stroke-linejoin="round"/>
<path d="M11 12.8333C12.0125 12.8333 12.8334 12.0125 12.8334 11C12.8334 9.98747 12.0125 9.16666 11 9.16666C9.9875 9.16666 9.16669 9.98747 9.16669 11C9.16669 12.0125 9.9875 12.8333 11 12.8333Z" stroke="#f7f5f5 " stroke-width="2" stroke-linecap="round" stroke-linejoin="round"/>
<path d="M14.85 7.15C16.9584 9.25834 16.9584 12.7417 14.85 14.9417M17.5084 4.49167C21.0834 8.06667 21.0834 13.8417 17.5084 17.4167" stroke="#f7f5f5 " stroke-width="2" stroke-linecap="round" stroke-linejoin="round"/>
</svg>
